<?xml version="1.0" encoding="UTF-8" standalone="no"?>
<svg
   xmlns:dc="http://purl.org/dc/elements/1.1/"
   xmlns:cc="http://creativecommons.org/ns#"
   xmlns:rdf="http://www.w3.org/1999/02/22-rdf-syntax-ns#"
   xmlns:svg="http://www.w3.org/2000/svg"
   xmlns="http://www.w3.org/2000/svg"
   xmlns:sodipodi="http://sodipodi.sourceforge.net/DTD/sodipodi-0.dtd"
   xmlns:inkscape="http://www.inkscape.org/namespaces/inkscape"
   inkscape:version="1.0 (4035a4fb49, 2020-05-01)"
   sodipodi:docname="Language.svg"
   id="svg6"
   version="1.1"
   viewBox="0 0 32 32"
   height="32"
   width="32">
  <metadata
     id="metadata12">
    <rdf:RDF>
      <cc:Work
         rdf:about="">
        <dc:format>image/svg+xml</dc:format>
        <dc:type
           rdf:resource="http://purl.org/dc/dcmitype/StillImage" />
      </cc:Work>
    </rdf:RDF>
  </metadata>
  <defs
     id="defs10" />
  <sodipodi:namedview
     inkscape:current-layer="svg6"
     inkscape:window-maximized="1"
     inkscape:window-y="-8"
     inkscape:window-x="1912"
     inkscape:cy="13.730412"
     inkscape:cx="15.320124"
     inkscape:zoom="12.521683"
     showgrid="false"
     id="namedview8"
     inkscape:window-height="1017"
     inkscape:window-width="1920"
     inkscape:pageshadow="2"
     inkscape:pageopacity="0"
     guidetolerance="10"
     gridtolerance="10"
     objecttolerance="10"
     borderopacity="1"
     bordercolor="#666666"
     pagecolor="#ffffff" />
  <path
     style="stroke-width:1.6;fill:#5274b1;fill-opacity:1"
     d="M 15.984,0 C 7.152,0 0,7.168 0,16 0,24.832 7.152,32 15.984,32 24.832,32 32,24.832 32,16 32,7.168 24.832,0 15.984,0 Z m 11.088,9.6 h -4.72 C 21.84,7.6 21.104,5.68 20.144,3.904 23.088,4.912 25.536,6.96 27.072,9.6 Z M 16,3.264 c 1.328,1.92 2.368,4.048 3.056,6.336 H 12.944 C 13.632,7.312 14.672,5.184 16,3.264 Z M 3.616,19.2 C 3.36,18.176 3.2,17.104 3.2,16 3.2,14.896001 3.36,13.824001 3.616,12.800001 H 9.024 C 8.896,13.856001 8.8,14.912001 8.8,16 c 0,1.088 0.096,2.144 0.224,3.2 z m 1.312,3.2 h 4.72 c 0.512,2 1.248,3.92 2.208,5.696 C 8.912,27.088 6.464,25.056 4.928,22.4 Z M 9.648,9.6 H 4.928 C 6.464,6.944 8.912,4.912 11.856,3.904 10.896,5.68 10.16,7.6 9.648,9.6 Z M 16,28.736 C 14.672,26.816 13.632,24.688 12.944,22.4 h 6.112 C 18.368,24.688 17.328,26.816 16,28.736 Z M 19.744,19.2 H 12.256 C 12.112,18.144 12,17.088 12,16 c 0,-1.087999 0.112,-2.159999 0.256,-3.199999 h 7.488 c 0.144,1.04 0.256,2.112 0.256,3.199999 0,1.088 -0.112,2.144 -0.256,3.2 z m 0.4,8.896 C 21.104,26.32 21.84,24.4 22.352,22.4 h 4.72 c -1.536,2.64 -3.984,4.688 -6.928,5.696 z M 22.976,19.2 C 23.104,18.144 23.2,17.088 23.2,16 c 0,-1.087999 -0.096,-2.143999 -0.224,-3.199999 h 5.408 c 0.256,1.024 0.416,2.096 0.416,3.199999 0,1.104 -0.16,2.176 -0.416,3.2 z"
     id="path4" />
</svg>
