<?xml version="1.0" encoding="UTF-8" standalone="no"?>
<svg
   xmlns:dc="http://purl.org/dc/elements/1.1/"
   xmlns:cc="http://creativecommons.org/ns#"
   xmlns:rdf="http://www.w3.org/1999/02/22-rdf-syntax-ns#"
   xmlns:svg="http://www.w3.org/2000/svg"
   xmlns="http://www.w3.org/2000/svg"
   xmlns:sodipodi="http://sodipodi.sourceforge.net/DTD/sodipodi-0.dtd"
   xmlns:inkscape="http://www.inkscape.org/namespaces/inkscape"
   inkscape:version="1.0 (4035a4fb49, 2020-05-01)"
   sodipodi:docname="Theme.svg"
   xml:space="preserve"
   enable-background="new 0 0 100 100"
   viewBox="0 0 32 32"
   height="32"
   width="32"
   y="0px"
   x="0px"
   id="Layer_1"
   version="1.1"><metadata
   id="metadata8"><rdf:RDF><cc:Work
       rdf:about=""><dc:format>image/svg+xml</dc:format><dc:type
         rdf:resource="http://purl.org/dc/dcmitype/StillImage" /></cc:Work></rdf:RDF></metadata><defs
   id="defs6" /><sodipodi:namedview
   inkscape:current-layer="Layer_1"
   inkscape:window-maximized="1"
   inkscape:window-y="-8"
   inkscape:window-x="1912"
   inkscape:cy="10.664446"
   inkscape:cx="64.868614"
   inkscape:zoom="8.5"
   showgrid="false"
   id="namedview4"
   inkscape:window-height="1017"
   inkscape:window-width="1920"
   inkscape:pageshadow="2"
   inkscape:pageopacity="0"
   guidetolerance="10"
   gridtolerance="10"
   objecttolerance="10"
   borderopacity="1"
   bordercolor="#666666"
   pagecolor="#ffffff" />
<path
   style="stroke-width:0.325496;fill:#5274b1;fill-opacity:1"
   d="m 27.107279,26.471299 c -0.05408,-1.32501 -1.979195,-5.264945 -1.933755,-6.793905 0.05184,-1.733571 1.065277,-3.868751 3.175352,0.305262 1.264317,2.501362 3.205112,0.944923 3.440631,-0.272153 C 32.500866,16.028815 31.444548,11.612777 28.080396,7.2858013 22.261532,-0.1970959 12.033718,-2.2521528 5.2417356,2.6962733 -1.5499267,7.6453618 -1.6865663,18.78975 4.5111775,25.248595 c 5.6175855,5.852293 13.3647655,8.424508 19.8421885,5.603978 0.669758,-0.293012 2.886073,-1.190589 2.753913,-4.381274 z M 8.9127661,4.7738443 C 10.138363,3.8809027 11.831158,4.1845095 12.694836,5.4532348 13.558514,6.7216291 13.264115,8.4734103 12.038518,9.366352 10.811961,10.259956 9.1194856,9.9556868 8.2558078,8.6872925 7.3921301,7.4188983 7.6858893,5.6677792 8.9127661,4.7738443 Z M 3.6206198,16.187406 C 2.7575822,14.919012 3.0519814,13.167231 4.2775781,12.274289 5.502535,11.381347 7.1966106,11.684292 8.0596483,12.952686 8.9233261,14.221412 8.6282869,15.973524 7.40333,16.866466 6.1777332,17.759738 4.4839776,17.457125 3.6206198,16.187406 Z M 16.796586,8.8773365 c -0.864318,-1.2683943 -0.569919,-3.0208377 0.656318,-3.9137793 1.225917,-0.8929416 2.918392,-0.5890038 3.78271,0.6797216 0.863038,1.2680631 0.568959,3.0195133 -0.656958,3.9131171 -1.225917,0.8932731 -2.918713,0.5896661 -3.78207,-0.6790594 z M 7.6142095,23.355771 C 6.7511717,22.086383 7.044611,20.33394 8.2702078,19.440998 c 1.2259168,-0.892942 2.9196722,-0.589004 3.7827102,0.679059 0.863038,1.268726 0.569598,3.021169 -0.656318,3.914111 -1.225597,0.893604 -2.9190327,0.589003 -3.7823905,-0.678397 z"
   id="Palette_1_" />
</svg>
